<?xml version="1.0" encoding="utf-8"?>
<!-- Generator: Adobe Illustrator 15.0.0, SVG Export Plug-In . SVG Version: 6.00 Build 0)  -->
<!DOCTYPE svg PUBLIC "-//W3C//DTD SVG 1.1//EN" "http://www.w3.org/Graphics/SVG/1.1/DTD/svg11.dtd">
<svg version="1.1" id="Layer_1" xmlns="http://www.w3.org/2000/svg" x="0px" y="0px"
     width="509px" height="716.105px" viewBox="0 0 509 716.105" enable-background="new 0 0 509 716.105"
     xml:space="preserve">
<path id="Seoul_Gangdong-gu" fill-rule="evenodd" clip-rule="evenodd" fill="#B9B9B9" d="M171.5,167.272v2.167l1.167,1.25l-0.25,1.083l1.083,1.75l1.917,0.583
		l0.333-1.5l3.833-2.833l-0.333-2.5l-0.833-1.667l-3.667-0.333L171.5,167.272"  style="stroke:#000000;stroke-opacity:1;stroke-width:0.5;stroke-miterlimit:4;stroke-dasharray:none;"/>
    <path id="Seoul_Songpa-gu" fill="#B9B9B9" d="M171.5,169.439l-2.25,3.25l-3.333,0.417v2.5l2.833,2.25l1-0.083l0.667,1
		l1.167,0.917l1.25,2.5l3.75-4.583l-1.167-3v-0.5l-1.917-0.583l-0.917-1.917l0.083-0.917L171.5,169.439z" style="stroke:#000000;stroke-opacity:1;stroke-width:0.5;stroke-miterlimit:4;stroke-dasharray:none;"/>
    <path id="Seoul_Gwangjin-gu" fill="#B9B9B9" d="M168.583,165.605l-1.5,0.25l-0.583,1.75l-1.25,3l-0.583,1.917l1.25,0.583
		l3.333-0.417l2.25-3.25l-0.083-1.917l-1.833-3.083L168.583,165.605z" style="stroke:#000000;stroke-opacity:1;stroke-width:0.5;stroke-miterlimit:4;stroke-dasharray:none;"/>
    <path id="Seoul_Jungnang-gu" fill="#B9B9B9" d="M166.667,158.939l0.417,6.917l1.5-0.25l3-2.917l-0.167-3.917L171,157.855
		l-2.583,0.083L166.667,158.939z" style="stroke:#000000;stroke-opacity:1;stroke-width:0.5;stroke-miterlimit:4;stroke-dasharray:none;"/>
    <path id="Seoul_Nowon-gu" fill="#B9B9B9" d="M164.917,146.605l-0.833,2.833l0.667,2.417l-0.5,3.75l-1.083,0.417
		l1.75,2.083l1.917,1l1.583-1.167l3,0.333l-3-5.333l-0.5-6L164.917,146.605" style="stroke:#000000;stroke-opacity:1;stroke-width:0.5;stroke-miterlimit:4;stroke-dasharray:none;"/>
    <path id="Seoul_Gangnam-gu" fill="#B9B9B9" d="M164.667,172.522L162,171.689l-2.667-0.25l-0.833,1l1.083,2.833l0.5,1.083
		l0.333,2.167l1.833,1.417l0.833,1.833l0.667,0.833l1.417-0.417l0.75-0.75l1.917,0.167l0.25,1.25l0.917,0.5l0.75-0.75l3-0.167
		l-1.167-2.75l-1.167-0.917l-0.667-1l-1,0.083l-2.833-2.25l0.083-2.25L164.667,172.522z" style="stroke:#000000;stroke-opacity:1;stroke-width:0.5;stroke-miterlimit:4;stroke-dasharray:none;"/>
    <path id="Seoul_Seongdong-gu" fill="#B9B9B9" d="M160.5,165.855l-0.25,1.583l-1.083,1.083l-0.5,0.917l0.667,2l2.667,0.25
		l2.583,1l1.75-4.083l0.167-1l-2.5-0.917l-0.917-1.083L162,165.689l-0.833,0.5L160.5,165.855z" style="stroke:#000000;stroke-opacity:1;stroke-width:0.5;stroke-miterlimit:4;stroke-dasharray:none;"/>
    <path id="Seoul_Dongdaemun-gu" fill="#B9B9B9" d="M160.583,164.605l0.667-1.417l1.667-1.167l1.167-1.417l2.75-0.5
		l0.25,5.75l-0.667,2L164,166.689l-1.25-0.833l-1,0.167l-0.583,0.167l-0.667-0.333L160.583,164.605z" style="stroke:#000000;stroke-opacity:1;stroke-width:0.5;stroke-miterlimit:4;stroke-dasharray:none;"/>
    <path id="Seoul_Seongbuk-gu" fill="#B9B9B9" d="M162.5,158.855l-3-0.083l-0.917-1.917l-3.417-2.167l-0.75,1.167l1,2
		l0.5,2.167l-0.833,0.833l0.083,0.667l2.25,0.667l1.75,2.417h1.417l0.667-1.417l1.583-0.917l1.583-1.667l2.417-0.5l-0.25-1.333
		l-1.5-1l-1.417-1.25L162.5,158.855z" style="stroke:#000000;stroke-opacity:1;stroke-width:0.5;stroke-miterlimit:4;stroke-dasharray:none;"/>
    <path id="Seoul_Gangbuk-gu" fill="#B9B9B9" d="M160.75,152.939l-2.25-1.333l0.583-2.917l-0.667-2.167l-2.5,2.417
		l-0.833,5l0.083,1.083l3,1.75l1.333,2l3,0.083l1.417-2.167L160.75,152.939z" style="stroke:#000000;stroke-opacity:1;stroke-width:0.5;stroke-miterlimit:4;stroke-dasharray:none;"/>
    <path id="Seoul_Dobong-gu" fill="#B9B9B9" d="M164.75,146.959l-1.542,0.771l-3.854-2.583l-1.083,1.5l0.625,2.021
		l-0.479,3.104l2.313,1.229l2.75,3.271l1.042-0.583l0.458-3.813l-0.75-2.271L164.75,146.959z" style="stroke:#000000;stroke-opacity:1;stroke-width:0.5;stroke-miterlimit:4;stroke-dasharray:none;"/>
    <path id="Seoul_Seocho-gu" fill="#B9B9B9" d="M155.5,175.043l3-2.604l1.583,3.917l0.417,1.938l2,1.75l1.25,2.375
		l1.417-0.229l0.646-0.896l2.25,0.188l0.021,1.375l0.917,0.5l-3.417,5.083l-2.646-0.833l-1.521-4.167l-5.542-0.333l-0.813-2.188
		l0.313-3.625l-0.688-0.938l-0.938-0.313l-0.125-1H155.5z" style="stroke:#000000;stroke-opacity:1;stroke-width:0.5;stroke-miterlimit:4;stroke-dasharray:none;"/>
    <path id="Seoul_Yongsan-gu" fill="#B9B9B9" d="M151.813,173.98l-1.813-2l2.938-3.5l3.125,0.063l0.625,0.438l1.979,0.458
		l0.667,2l-0.958,1.417l-2.875,2.188h-1.875L151.813,173.98z" style="stroke:#000000;stroke-opacity:1;stroke-width:0.5;stroke-miterlimit:4;stroke-dasharray:none;"/>
    <path id="Seoul_Jung-gu" fill="#B9B9B9" d="M152.313,167.043l1.063-1.188l2-0.375l1,0.563l4.125-0.188l-0.25,1.583
		l-1.083,1.083l-0.542,1.271l-1.438-0.5l-1.125-0.75h-2.938L152.313,167.043z" style="stroke:#000000;stroke-opacity:1;stroke-width:0.5;stroke-miterlimit:4;stroke-dasharray:none;"/>
    <path id="Seoul_Jongno-gu" fill="#B9B9B9" d="M151.688,156.98l0.25,3.688l0.5,0.813l0.188,1.813l-0.5,1.25l1.25,1.563
		l1.875-0.313l1.25,0.438l3.813-0.313l0.438-1.5l-1.313-0.125l-2.063-2.25l-2.313-0.75l1-1.313l-0.688-2.688l-2.188-1.938
		L151.688,156.98z" style="stroke:#000000;stroke-opacity:1;stroke-width:0.5;stroke-miterlimit:4;stroke-dasharray:none;"/>
    <path id="Seoul_Eunpyeong-gu" fill="#B9B9B9" d="M145.438,163.855l-2-1.688l1.75-1.063l0.375-6.125l2.188-0.813l2.75-2.938
		l1.583,3.042l1.292,1.271l-1.438,1.5v2.938l-1.25,0.063l-0.75,1.125l-1.063,0.313l-0.625,1.063l-1.313,0.063L145.438,163.855z" style="stroke:#000000;stroke-opacity:1;stroke-width:0.5;stroke-miterlimit:4;stroke-dasharray:none;"/>
    <path id="Seoul_Seodaemun-gu" fill="#B9B9B9" d="M148.875,167.105l-3.125-3.5l1.188-1l1.313-0.063l0.625-1.063
		l1.063-0.313l0.75-1.125l1.25-0.063l0.063,1l0.688,0.563l-0.063,1.75l-0.438,1l1.188,1.813l-1.063,0.938l-0.813,0.5
		L148.875,167.105z" style="stroke:#000000;stroke-opacity:1;stroke-width:0.5;stroke-miterlimit:4;stroke-dasharray:none;"/>
    <path id="Seoul_Mapo-gu" fill="#B9B9B9" d="M148.188,170.668l-4.938-2.25l-2.813-2.188l-2-2.125l2.188,0.125
		l2.438-2.188l0.75,0.125l1.563,1.5l0.75,0.25l2.75,2.875l2.813,0.563l0.75-0.125l1,1.438L150,171.98L148.188,170.668z" style="stroke:#000000;stroke-opacity:1;stroke-width:0.5;stroke-miterlimit:4;stroke-dasharray:none;"/>
    <path id="Seoul_Gangseo-gu" fill="#B9B9B9" d="M135.563,169.105l2,2.125l2,0.063l0.938-2.25l1.5-0.188v-1.25l-3.563-3.5
		l-1.313-0.188l-4.5-3.063l-4.792,7.333l6.229,2.604L135.563,169.105z" style="stroke:#000000;stroke-opacity:1;stroke-width:0.5;stroke-miterlimit:4;stroke-dasharray:none;"/>
    <path id="Seoul_Yangcheon-gu" fill="#B9B9B9" d="M138.313,174.543l1.188,0.063l0.688,1.063l1.125-0.313l0.938-1.063
		l-0.313-2l1.063-1l-0.188-0.938l-1-1.5h-1.563l-1,2.25l-1.688,0.125l-2.188-2.188l-1.125,1.896l1.188,4.667l1.688-0.125
		L138.313,174.543z" style="stroke:#000000;stroke-opacity:1;stroke-width:0.5;stroke-miterlimit:4;stroke-dasharray:none;"/>
    <path id="Seoul_Guro-gu" fill="#B9B9B9" d="M143.688,178.855l-0.188-2.125l-0.625-1.75l-1-0.75l-0.813,1.125
		l-0.75-0.063l-0.938-0.875h-1.5l-0.938,0.938l-1.5,0.25l-1.688,1.833l1.375,3.792l2.938-1.313l2.5-1.563l0.75,1L143.688,178.855z"
     style="stroke:#000000;stroke-opacity:1;stroke-width:0.5;stroke-miterlimit:4;stroke-dasharray:none;"/>
    <path id="Seoul_Geumcheon-gu" fill="#B9B9B9" d="M146.688,183.73l-0.75-3.688l-0.75-1.063l-1.875-0.438l-2,0.813
		l3.271,7.417l2.917-1.729l-0.5-0.938L146.688,183.73z" style="stroke:#000000;stroke-opacity:1;stroke-width:0.5;stroke-miterlimit:4;stroke-dasharray:none;"/>
    <path id="Seoul_Gwanak-gu" fill="#B9B9B9" d="M148.063,177.73l3.563,0.188l1.188,2.438l2.25,0.563l0.75,1.813
		l-3.438,4.313l-2.125-0.104l-3.75-3.146l-0.75-3.75l-0.313-0.813l1.375-0.5l0.813-1h0.437V177.73z" style="stroke:#000000;stroke-opacity:1;stroke-width:0.5;stroke-miterlimit:4;stroke-dasharray:none;"/>
    <path id="Seoul_Dongjak-gu" fill="#B9B9B9" d="M148.438,173.668l-1.25,2l-0.5,1.563l-1.625,1.063l-0.188,0.688
		l0.563,0.25l1.438-0.25l0.813-1.063l3.813,0.313l1.313,2.125l2.25,0.563l0.313-3.625l-0.688-0.938l-1.188-0.5l0.125-0.813
		l-1.875-1.375L148.438,173.668L148.438,173.668z" style="stroke:#000000;stroke-opacity:1;stroke-width:0.5;stroke-miterlimit:4;stroke-dasharray:none;"/>
    <path id="Seoul_Yeongdeungpo-gu" fill="#B9B9B9" d="M142.188,168.355l-0.188-0.75l6.188,3.063L150,171.98l1.375,1.563
		l-3,0.438l-1.438,2l-0.25,1.25l-2.188,1.625l-1.25-0.563l-0.063-1.625l-0.563-1.625l-0.75-0.813l-0.125-1.875l1.25-1.063
		l-1.188-2.438L142.188,168.355z" style="stroke:#000000;stroke-opacity:1;stroke-width:0.5;stroke-miterlimit:4;stroke-dasharray:none;"/>

    <path id="Ganghwa-gun" fill="#B9B9B9" d="M96.083,132.105l-10.167-7.167l-2.167,1.833h-2.833l-4.167,4.167l0.833,7.333l-2,0.667
			l0.5,4.833l5.833,5.333l0.167,4.333l-4,2.833l2.333,4.5l10.333,1.333l5.333,0.833l5.5-3.5l-0.833-2.5l-2.833-3l1.333-3l-1.5-3.5
			l0.833-3l-1.667-3.833l1.333-3.167L96.083,132.105z" style="stroke:#000000;stroke-opacity:1;stroke-width:0.5;stroke-miterlimit:4;stroke-dasharray:none;"/>
    <path id="Ganghwa-gun" fill="#B9B9B9" d="M89.25,169.939l-3.167,3l3.333,1.333l1.167-2.833L89.25,169.939z" style="stroke:#000000;stroke-opacity:1;stroke-width:0.5;stroke-miterlimit:4;stroke-dasharray:none;"/>
    <path id="Ganghwa-gun" fill="#B9B9B9" d="M72.917,136.939l-4.167,1l-1.167,5.333l-1.667,0.333l7,5.667l0.167,4.5l4.333-0.5
			l2-4.667l-5.333-5.167L72.917,136.939z" style="stroke:#000000;stroke-opacity:1;stroke-width:0.5;stroke-miterlimit:4;stroke-dasharray:none;"/>
    <path id="Ganghwa-gun" fill="#B9B9B7" d="M74.417,129.939l-4.333,5.167l-3.833-0.5l-5,2.667l-2.5-4l1.333-2.833l0.333-2.333
			l3.333-1.5l4.333,0.833l5,1.167L74.417,129.939z" style="stroke:#000000;stroke-opacity:1;stroke-width:0.5;stroke-miterlimit:4;stroke-dasharray:none;"/>

    <path id="Incheon_Gyeyang-gu" fill="#B9B9B9" d="M122.917,162.272l-1.5,2l-3.583-0.083l1.833,2l0.583,2l0.583,0.833
		l-3,2.667l0.667,1.583l8.75-0.25l0.583-4.833l3-4l-0.583-0.5l-5.833-0.583L122.917,162.272" style="stroke:#000000;stroke-opacity:1;stroke-width:0.5;stroke-miterlimit:4;stroke-dasharray:none;"/>
    <path id="Incheon_Bupyeong-gu" fill="#B9B9B9" d="M117.917,175.272l1.083,2l-1,3.25l1.75,2l1.833-1.917l4.833,2l1.583-0.75
		l-2.583-2.25l-0.083-4.25l1.917-1.583v-0.75l-8.75,0.25L117.917,175.272z" style="stroke:#000000;stroke-opacity:1;stroke-width:0.5;stroke-miterlimit:4;stroke-dasharray:none;"/>
    <path id="Incheon_Seo-gu" fill="#B9B9B9" d="M118.083,180.272l-2.667-0.333l-3-2.25v-1.5l-3-0.417l0.083-2.75l4.25-0.667
		l-6.167-0.583l-0.417-4.583l-3.5-4.333l7.417-3.25l2.5-4.5l9.5,7l-1.75,2.333l-3.167-0.25l1.5,2l0.583,2l0.833,0.833l-3.417,2.583
		l0.833,1.667l-0.583,2.25l1.083,1.75L118.083,180.272z" style="stroke:#000000;stroke-opacity:1;stroke-width:0.5;stroke-miterlimit:4;stroke-dasharray:none;"/>
    <path id="Incheon_Yeonsu-gu" fill="#B9B9B9" d="M120.5,188.105l-3.583-0.917l-6.333,0.75l1.417,2.25l3.333,2.75
		L120.5,188.105z" style="stroke:#000000;stroke-opacity:1;stroke-width:0.5;stroke-miterlimit:4;stroke-dasharray:none;"/>
    <path id="Incheon_Nam-gu" fill="#B9B9B9" d="M112.583,187.522L112,184.939l1.167-3.25l2.25-1.75l2.25,0.25l1.833,2.083
		l0.417,3.583l0.583,2.25l-3.333-1L112.583,187.522z" style="stroke:#000000;stroke-opacity:1;stroke-width:0.5;stroke-miterlimit:4;stroke-dasharray:none;"/>
    <path id="Incheon_Namdong-gu" fill="#B9B9B9" d="M115.333,192.939l5.167-4.833l-0.583-2.25l-0.167-3.333l1.833-1.917
		l4.833,2l1.583-0.75l1.75,1.25l-6.25,11.917l-5.417-0.167L115.333,192.939z" style="stroke:#000000;stroke-opacity:1;stroke-width:0.5;stroke-miterlimit:4;stroke-dasharray:none;"/>
    <path id="Incheon_Dong-gu" fill="#B9B9B9" d="M113.125,182.23l-2.375-1.375l-2.875-2.188l2-1.313l1.438-1.438l1.104,0.271
		l0.271,1.479l2.5,2.25l-1.75,1.563L113.125,182.23z" style="stroke:#000000;stroke-opacity:1;stroke-width:0.5;stroke-miterlimit:4;stroke-dasharray:none;"/>
    <path id="Incheon_Jung-gu" fill="#B9B9B9" d="M95.917,170.939l-1.5,1.5l-1.167,3.833l-6.833,0.333l0.667,2.667l-2.833,2l4.5,6
			l4.667-2.5l2.5-3.5l3.667-1l4.833-1.833l-2.667-4.333L95.917,170.939z" style="stroke:#000000;stroke-opacity:1;stroke-width:0.5;stroke-miterlimit:4;stroke-dasharray:none;"/>
    <path id="Incheon_Jung-gu" fill="#B9B9B9" stroke="#FFFFFF"
          d="M87.083,190.772l2.5,2.667l1.333-2.333l-2.167-0.833L87.083,190.772z" style="stroke:#000000;stroke-opacity:1;stroke-width:0.5;stroke-miterlimit:4;stroke-dasharray:none;"/>
    <path id="Incheon_Jung-gu" fill="#B9B9B9" d="M110.583,187.939l-1.833-1.146l-0.188-2.063l-1.438,1.188l-1.063-0.938l0.063-2.125
			l1.375-1.938l0.188-2.25l1.188,0.625l2.188,2.063l2.063,0.875l-1.063,3.063l0.75,2.375L110.583,187.939z" style="stroke:#000000;stroke-opacity:1;stroke-width:0.5;stroke-miterlimit:4;stroke-dasharray:none;"/>

    <path id="Ongjin-gun" fill="#B9B9B9" d="M90.083,210.772l-3.5,2.167l0.167,5.833l2.5,1l2.833-2.333l1.167-1.5l2.667-0.5
			l-1.5-2.833L90.083,210.772z" style="stroke:#000000;stroke-opacity:1;stroke-width:0.5;stroke-miterlimit:4;stroke-dasharray:none;"/>
    <path id="Ongjin-gun" fill="#B9B9B9" d="M45.25,212.606l-1.167,3.5l-0.833,4.667l3,0.667l2,1.5l2.333-0.667l2.167-2.5
			l-3.333-3.167l-2.5-1.333l-0.333-2.333L45.25,212.606z" style="stroke:#000000;stroke-opacity:1;stroke-width:0.5;stroke-miterlimit:4;stroke-dasharray:none;"/>
    <path id="Ongjin-gun" fill="#B9B9B9" stroke="#FFFFFF"
          d="M73.583,214.439l-5.333-2l0.167,2.333l5.167,3.333l2.667-2.333L73.583,214.439z" style="stroke:#000000;stroke-opacity:1;stroke-width:0.5;stroke-miterlimit:4;stroke-dasharray:none;"/>
    <path id="Ongjin-gun" fill="#B9B9B9" d="M20.5,171.355l4-1.75l-2.25-2.5l-4.5-0.25l-3,1.25l-3.75-0.25l-0.75,1l2,2.75l1.25,2.5
			l3.5,0.25l3.25,1l-0.25-2.5L20.5,171.355z" style="stroke:#000000;stroke-opacity:1;stroke-width:0.5;stroke-miterlimit:4;stroke-dasharray:none;"/>
    <path id="Ongjin-gun" fill="#B9B9B9" stroke="#FFFFFF"
          d="M21.25,186.105l-1.75-1l-2.5,2.25l-1.75,1l2.25,2.5l3-0.5l0.75-2.25V186.105z" style="stroke:#000000;stroke-opacity:1;stroke-width:0.5;stroke-miterlimit:4;stroke-dasharray:none;"/>
    <path id="Ongjin-gun" fill="#B9B9B9" d="M44.25,188.855l-3.25-0.25l-0.25,1.75l3,1.5v-1.5L44.25,188.855z" style="stroke:#000000;stroke-opacity:1;stroke-width:0.5;stroke-miterlimit:4;stroke-dasharray:none;"/>

    <path id="Gimpo-si" fill="#B9B9B9" d="M131.417,159.105l-16.167-11l2.833-5.5l-1.833-3.833l-0.667-6.333
		l-3.167,0.333l-3.333,4.333l-6.333-0.5l-1.833-2.167l-3.667,0.167l1,2.833l0.333,2.333l-0.5,0.833l1,5.333v2.667l0.833,3.333
		l-0.167,3l2.833,2.833v2.667l0.833,2.5l7.667-3.333l2.5-4.5l10.833,8l6.667,0.667l1.667-3.167L131.417,159.105z" style="stroke:#000000;stroke-opacity:1;stroke-width:0.5;stroke-miterlimit:4;stroke-dasharray:none;"/>
    <path id="Goyang-si" fill="#B9B9B9" d="M117.083,145.772l2.5,0.333l4.167-1l6.167-0.5l2.333-4.333l2.333,0.833
		l4.5-0.833l3.5,2l3-3.667l2.5,0.333l-0.833,2.5v5.667l-0.833,2.5l3.667-0.5l2-2.5l4,2.333l-0.833,5.333l-0.833,2l-2.333-2
		l-1.667-2.833l-2.667,3l-2,0.667l-0.333,6.5l-2.5,0.667l-2,2l-3.5-0.167l-4.5-3l-1.5-2l-16.167-11L117.083,145.772z" style="stroke:#000000;stroke-opacity:1;stroke-width:0.5;stroke-miterlimit:4;stroke-dasharray:none;"/>
    <path id="Paju-si" fill="#B9B9B9" d="M116.583,124.439l3.167-1.667l7.333-0.667l-6-9.833l-5.5-0.333l0.167-6.5
		l5.833,3.667l2.833-3l-0.167-1.833l2.5-3.5l1.667,2.333l1.167,5.667l-0.667,3l2.333,0.167l0.833,3.333l2.5-0.833l1.667-10.333
		l2.167-3.167l5.167,2.5l0.5-5l3.5,2.167l3.833-0.167l2.667-2.833l4.5,2.833l-5.333,7.667l-2.667,3.333l-1,9.667l-0.833,2.667
		l-2.333-0.333l-0.667,3.167l0.5,4.5l2.5,1.667l-0.167,6l-3-0.167l-3,3.667l-3.5-2l-4.5,0.833l-2.333-0.833l-2.333,4.333l-6.167,0.5
		l-4.167,1l-3-0.333l1.5-3.167l-1.833-3.833l-0.667-6.333L116.583,124.439z" style="stroke:#000000;stroke-opacity:1;stroke-width:0.5;stroke-miterlimit:4;stroke-dasharray:none;"/>
    <path id="Yangju-si" fill="#B9B9B9" d="M158.083,109.272l-4.333-1.333l-3.167,3.5l-1,9.667l-0.833,2.667
		l-2.333-0.333l-0.667,3.167l0.5,4.5l2.5,1.667l-0.167,6l-1.333,2.667v5.667l-0.833,2.5l3.667-0.5l2-2.5l4,2.333l3.333-3.833
		l-1.5-4.833l-1.833-3.333l3-2.333l3.833,0.833l4-1.5l3.667-1.667l1.167-6l-1.5-6l-7.833-1.667l-1.333-3.667l-3.833-1.833
		L158.083,109.272z" style="stroke:#000000;stroke-opacity:1;stroke-width:0.5;stroke-miterlimit:4;stroke-dasharray:none;"/>
    <path id="Uijeongbu-si" fill="#B9B9B9" d="M174.583,136.939l-2,2.833l-0.5,2l-4.167,5.167l-3-0.333l-1.667,1.333
		l-3.833-2.833l-1.5-4.833l-1.833-3.333l3-2.333l3.833,0.833l7.667-3.167l2.667,2.167L174.583,136.939z" style="stroke:#000000;stroke-opacity:1;stroke-width:0.5;stroke-miterlimit:4;stroke-dasharray:none;"/>
    <path id="Dongducheon-si" fill="#B9B9B9" d="M163.917,101.939l-6.167,7.833l-0.5,3.333l3.667,2.333l1.5,3.167
		l7.833,1.667l2.333-2.167h2.167l0.667-3.167l-1.833-3.333l-5.167-5v-3.833L163.917,101.939z" style="stroke:#000000;stroke-opacity:1;stroke-width:0.5;stroke-miterlimit:4;stroke-dasharray:none;"/>
    <path id="Yeoncheon-gun" fill="#B9B9B9" d="M144.25,86.439l-1.667,5.833l-0.667,3.667l-5.333-2.667l-1.167,5
		l-2.333,1.5l1,4.5l2.167-0.167l2.167-3.167l5.167,2.5l0.5-4.5l3.5,1.667l3.833-0.167l2.667-2.833l4.5,2.833l-4.833,7.5l3.833,1.167
		l6.333-7.167l4.5,0.833l0.167-2.5h2.167l2.5,0.333l1.667-2l-0.833-6.333l-2.333-0.5l-0.167-2.333l3.667-2.833l4.167,1.333v-6.833
		l0.5-12.167l-2.167-3.5l-2.167-5.333l-3.5,1.833l-1.833-2.333l0.167-6.833l-9.333,4.667l-6.333,4.833l-2.167,4.333l-2.167-1.5
		l-4.167,2l-2.333-0.667l-3-4l-15.667,16l3.833,3.667l1.333,3.167l6.167,0.333l4.333-2.167L144.25,86.439z" style="stroke:#000000;stroke-opacity:1;stroke-width:0.5;stroke-miterlimit:4;stroke-dasharray:none;"/>
    <path id="Pocheon-si" fill="#B9B9B9" d="M174.583,136.939l4.5-0.167l3.667-1l2.5,0.667l5.167-3.333l2.667-14.167
		h3.833l1.167-8.167l5.833-1.833l0.333-6.167l4.667-6.333l1.667-4.167l2.5-0.833l-1.667-10.167l-1.667-1.167l-1.167,1.667l-5.5-2
		l-3.667,2.667l-1.5,1.5l-2-3.5l-4.167-1l1.5-8.5l-2.167-1.333l-7.333,6.333l-4.167-3.833v8l-0.333,7.333l-4-0.833l-3.667,2.833
		l0.167,2.333l2.667,1.833l0.5,5l-1.667,2l-4.667-0.333l-0.167,6.333l4.667,4.333l2,3.167l-0.333,4h-2.167l-2.333,2.167l1.667,6.5
		l-1.333,5.5l3.167,2.833L174.583,136.939z" style="stroke:#000000;stroke-opacity:1;stroke-width:0.5;stroke-miterlimit:4;stroke-dasharray:none;"/>
    <path id="Guri-si" fill="#B9B9B9" d="M178.417,165.605l1.5-3.5l-4-1.667l-1.167-6.667l-2.167,1.167l-3-0.333
		l1.833,4.167l0.167,3.667l-2,2l1.667,2.833l3.5-2L178.417,165.605z" style="stroke:#000000;stroke-opacity:1;stroke-width:0.5;stroke-miterlimit:4;stroke-dasharray:none;"/>
    <path id="Namyangju-si" fill="#B9B9B9" d="M193.75,133.939l5,3.667l2.167,4.833l1,4.167l2.167,2.5l-0.667,4.5
		l-3.833,4.667l-0.333,6.833l-4.333,6.167l0.167,3.5l-2.667,0.167l-3.333-4l-3.333-3.5l-4-5l-1.833-0.333l-4-1.667l-1.167-6.667
		l-2.167,1.167l-3-0.333l-1.167-1.833l-0.5-5.833l4.167-5.167l0.5-2l2-2.833l5.167-0.167l3-1l2.5,0.667l5-2.833L193.75,133.939z" style="stroke:#000000;stroke-opacity:1;stroke-width:0.5;stroke-miterlimit:4;stroke-dasharray:none;"/>
    <path id="Hanam-si" fill="#B9B9B9" d="M174.417,180.439l3.167,0.667l2.5-1.5l6,0.333l1.5,1l1.667-2.333
		l-0.5-2.667l3.667-1l-3.333-4l-3-2.833l-4.333-5.667l-1.833-0.333l-1.5,3.5l0.833,1.667l0.333,2.5l-3.833,2.833l-0.333,2l1.167,3
		L174.417,180.439z" style="stroke:#000000;stroke-opacity:1;stroke-width:0.5;stroke-miterlimit:4;stroke-dasharray:none;"/>
    <path id="Yangpyeong-gun" fill="#B9B9B9" d="M210.917,150.605l-3.833,2.333l-3.667,0.667l-3.833,4.667l-0.333,6.833
		l-4.333,6.167l0.167,3.5l3.667-3.167l2.667,0.167l2.667,3.333l1.167,4.833l1,1.833l-1.5,1.833l-1.667,0.5l4,5.667l3.167-3.667
		l5.833,2.833l4.5-2.5l4,3.833l5,0.167l3.167-1l4,1.5l4.167-0.5l4,1.333l0.167,3l0.667,2.333h6l5.5-10.667l-1.333-6.333
		l-4.667-3.333l7.333-6.833l4.334-1.167l-6.334-5l-4-1.667h-8l-12.333-8.167l-6.167,3l-0.167,6.5l-4,1h-5.667l-1-6.167l-3.5-4.833
		L210.917,150.605z" style="stroke:#000000;stroke-opacity:1;stroke-width:0.5;stroke-miterlimit:4;stroke-dasharray:none;"/>
    <path id="Gapyeong-gun" fill="#B9B9B9" d="M213.917,95.939l-0.833-4.5l-2.5,0.833l-1.667,4.167l-4.667,6.333
		l-0.333,6.167l-5.833,1.833l-1.167,8.167h-3.833l-2.833,14.667l3.5,0.333l5,3.667l2.167,4.833l1,4.167l2,3.5l-0.5,3.5l3.667-0.667
		l3.833-2.333l0.833,2.833l3.5,4.833l1,6.167h5.667l4-1l0.167-6.5l-2.833-4.333l2.333-1.167l0.5-9.667l-4.833,0.667l0.333-3.833
		l2.833-3.333l-2.5-4.5l1.833-2.833l-0.833-4.667l6.667-6.333h2.833l1-5.667l-2.167-2.833l-0.333-3.667l-8-0.333l0.333-6.333
		l-8.667-0.667L213.917,95.939z" style="stroke:#000000;stroke-opacity:1;stroke-width:0.5;stroke-miterlimit:4;stroke-dasharray:none;"/>
    <path id="Yeoju-si" fill="#B9B9B9" d="M212.25,199.605v-5.167l-5.167-4.667l3.167-3.667l5.833,2.833l4.5-2.5
		l4,3.833l5,0.167l3.167-1l3.333,1.667l4.833-0.667l4,1.333l0.167,3l0.667,2.333h6l0.334,8.5l-1.5,10.667l-1.667,8l-5.833,9.5
		l-7.333-3.667l-5.5-4.833l-2.5,2.5l-5.167-0.5l0.333-2.833l-0.167-6.167l1.5-2.167l-0.833-4.333l1.833-3.167l-1.833-2.667
		l-2.833-3.5l-2-0.833l-3-2.333L212.25,199.605z" style="stroke:#000000;stroke-opacity:1;stroke-width:0.5;stroke-miterlimit:4;stroke-dasharray:none;"/>
    <path id="Gwangju-si" fill="#B9B9B9" d="M198.917,212.272l4.833-7l2.5-0.333l6-5.333v-5.167l-5.167-4.667l-4-5.667
		l1.667-0.5l1.333-1.167l-0.833-2.5l-1.167-4.833l-2.667-3.333l-2.667-0.167l-3.667,3.167l-3.167,0.333l-3.167,0.833l0.5,2.667
		l-1.667,2.333l-1.5-1l-6-0.333l-1,1.333l1,1.667l2.167,4.333l-1.667,3.5l-2,2.833l-0.667,3.5l-4.5,4v2.333l2.5-0.333l4-2.5
		l1.167,1.833l2.833,0.667l0.5-3.667l5,1.833l3.167,0.833l-0.167,11L198.917,212.272z" style="stroke:#000000;stroke-opacity:1;stroke-width:0.5;stroke-miterlimit:4;stroke-dasharray:none;"/>
    <path id="Seongnam-si" fill="#B9B9B9" d="M162.583,188.439l-2,8l6.167,3.167l4.333,3.5h2.333v-2.333l4.5-4
		l0.667-3.5l3.667-6.333l-3.5-6.5l-1.167,0.667l-3.167-0.667l-1.667,2l-3,0.167l-4.167,5.833l-2.5-1L162.583,188.439z" style="stroke:#000000;stroke-opacity:1;stroke-width:0.5;stroke-miterlimit:4;stroke-dasharray:none;"/>
    <path id="Gwacheon-si" fill="#B9B9B9" d="M154.917,191.605l7.167-2.5l1-1.667l-1.667-4l-6.167-0.5l-2.833,3.833
		v2.333L154.917,191.605z" style="stroke:#000000;stroke-opacity:1;stroke-width:0.5;stroke-miterlimit:4;stroke-dasharray:none;"/>
    <path id="Uiwang-si" fill="#B9B9B9" d="M153.583,194.272l-1.333,5.333l-2.5,5.667l-1,2.167l3.5,0.5l1-3.167
		l3.167-1.833l2.833-2.833l1.333-3.667l1.5-7.333l-6.667,2.5l-1.333,0.833L153.583,194.272z" style="stroke:#000000;stroke-opacity:1;stroke-width:0.5;stroke-miterlimit:4;stroke-dasharray:none;"/>
    <path id="Yongin-si" fill="#B9B9B9" d="M161.417,201.939l-2.167-1.833l1.333-3.667l6.167,3.167l4.333,3.5
		l4.833-0.333l4-2.5l1.167,1.833l2.833,0.667l0.5-3.667l8.167,2.667l-0.167,11l6.5-0.5l-0.167,6.833l1.333,3.5l4.333,1.667
		l0.167,2.833l3.833,0.167l1.333,3.5l1.833,1.667l-1.667,3.833l-0.833,3.833l-3.833-1l-5-0.333l-2.833-2.333l-2.167,1.667l-4.333-4
		l-1.667-2.167l-1.167,3.5l-4.667,3l-2.833,3.5l-5.167-1.333l-4.333-2.167l0.5-4.5l2.5-4.667l2.833-2l-1.5-5.667l-8.167-0.667
		l-1.833-2.333l2.667-4.833l-2.5-1.667l2.333-2.667l-3.167-0.667l-0.667-2.167l-2.167-0.667L161.417,201.939z" style="stroke:#000000;stroke-opacity:1;stroke-width:0.5;stroke-miterlimit:4;stroke-dasharray:none;"/>
    <path id="Anyang-si" fill="#B9B9B9" d="M149.25,195.939h-2.5l-2.333,2.667l-3-4.667l1-3.667l2.167-3.5l3.167-2
		l2.5,2.167l2.167-0.167v2.333l2.5,2.5l-0.833,0.833l-1.667,5.667L149.25,195.939z" style="stroke:#000000;stroke-opacity:1;stroke-width:0.5;stroke-miterlimit:4;stroke-dasharray:none;"/>
    <path id="Bucheon-si" fill="#B9B9B9" d="M134.917,181.105l-0.5,1.833l-5.167,0.167l-3.833-3.833l-0.333-4
		l2.167-1.5l0.667-5.333l6.333,2.5l1.5,4.833l-2,1.667L134.917,181.105z" style="stroke:#000000;stroke-opacity:1;stroke-width:0.5;stroke-miterlimit:4;stroke-dasharray:none;"/>
    <path id="Gwangmyeong-si" fill="#B9B9B9" d="M136.583,183.605l-2.167-0.667l0.5-1.833l3-1.167l2.5-1.667l1.333,1.833
		l2.833,6.667l-2.167,3.5l-0.667,1.667l-3.667-0.5l-0.833-6.833L136.583,183.605z" style="stroke:#000000;stroke-opacity:1;stroke-width:0.5;stroke-miterlimit:4;stroke-dasharray:none;"/>
    <path id="Siheung-si" fill="#B9B9B9" d="M121.583,197.439l-4,4.5l4.667,3.5l4.333-3.5l5-0.5l3.5-2.833l5.667-1.333
		l1-2.167l-0.333-1.167l0.333-2l-3.667-0.5l-1-6.333l-0.5-1.5l-2.167-0.667l-5.167,0.833l-5.667,10.833L121.583,197.439z" style="stroke:#000000;stroke-opacity:1;stroke-width:0.5;stroke-miterlimit:4;stroke-dasharray:none;"/>
    <path id="Icheon-si" fill="#B9B9B9" d="M221.25,245.605l1-5.167l-2.833-4.833l-4-0.833l-1.667-2.5l-2.167,0.167
		l-1.833-1.667l-1.333-3.5l-3.833-0.167l-0.333-2.333l-4.167-2.167l-1.333-3.5l0.167-6.833l4.833-7l2.5-0.333l6-5.333l3.333-0.333
		l2.333,2.167l2.667,1l4.667,6.167l-1.833,3.167l0.833,4.333l-1.5,2.167v6.833l-0.167,2.167l5.167,0.5l2.5-2.5l5.5,4.833l0.333,9.5
		l-3.5,1.167l0.167,2.667l-2.167-0.833l-2.167,0.5l-0.833,4.833l-2.5-1.333L221.25,245.605z" style="stroke:#000000;stroke-opacity:1;stroke-width:0.5;stroke-miterlimit:4;stroke-dasharray:none;"/>
    <path id="Suwon-si" fill="#B9B9B9" d="M149.375,209.355l-1.5,2.625l0.5,2.5c0,0,2.5,0.375,2.5,0.75
		s3.25,4.625,3.25,4.625l6-0.25l2-1.875l3.292,0.875l2.667-4.833l-2.5-1.667l2.333-2.667l-3.167-0.667l-0.667-2.167l-2.167-0.667
		l-0.5-4l-2.042-1.333l-2.625,2.125l-3.75,2.375l-0.75,2.833l-2.75-0.333L149.375,209.355z" style="stroke:#000000;stroke-opacity:1;stroke-width:0.5;stroke-miterlimit:4;stroke-dasharray:none;"/>
    <path id="Gunpo-si" fill="#B9B9B9" d="M148.75,207.439L145,205.73l-3.375-1.25l1.5-5.875l1.25-0.375l2.125-2
		l2.75-0.292l3.167,2.167l-0.167,1.5L148.75,207.439z" style="stroke:#000000;stroke-opacity:1;stroke-width:0.5;stroke-miterlimit:4;stroke-dasharray:none;"/>
    <path id="Ansan-si" fill="#B9B9B9" d="M122.25,205.439l5.625,3.042l5.875,0.375l1.5-0.125l2.75,3.875l5.625-2
		l4.25,1.375l1.5-2.625l0.125-1.75l-7.5-3.125l1.125-5.875l1.25-0.375l-2.625-3.125l-1,2.167l-5.667,1.333L132,201.48l-5.417,0.458
		L122.25,205.439z" style="stroke:#000000;stroke-opacity:1;stroke-width:0.5;stroke-miterlimit:4;stroke-dasharray:none;"/>
    <path id="Osan-si" fill="#B9B9B9" d="M163,234.98l5.5-0.5l1.375-1.75l-0.5-2.125l-2.5-0.375l-1.5-3.625
		l-1.25-2.375h-4.875l-2.375,4.125l3.625,2.375l0.25,3L163,234.98z" style="stroke:#000000;stroke-opacity:1;stroke-width:0.5;stroke-miterlimit:4;stroke-dasharray:none;"/>
    <path id="Pyeongtaek-si" fill="#B9B9B9" d="M146.625,269.48l10.125-5.125l4.875,1.625l6.5-2.875l3.25-4.25h2.75
		L175,255.23l1-1.125l-0.25-2.125l0.25-1.5l-5.5-1.375l3.125-3.625l-2.375-1.375l0.75-5.125l-0.75-0.875v-4.25l-1.375-1.125
		l-1.375,1.75l-5.125,0.375l-2.625-1.125l-3.75,1.875l-1.625,7.75l-6.125,1.375l-6.125-0.625l-5.5,7.875l-5.375,0.75l-1.75,1.875
		l5.375,1.625l1.375,5.5l6.75,4l1.5,3.75H146.625L146.625,269.48z" style="stroke:#000000;stroke-opacity:1;stroke-width:0.5;stroke-miterlimit:4;stroke-dasharray:none;"/>
    <path id="Anseong-si" fill="#B9B9B9" d="M193.375,270.48l-4.75-4.125l-4.25-0.375l-3.25-4.25l-7-2.875L175,255.23
		l1-1.125l-0.5-2.625l0.5-1l-5.5-1.375l3.125-3.625l-2.375-1.75l0.75-4.75l3.417,1.625l5.167,1.333l2.542-3.583l4.958-2.917
		l1.167-3.5l2,2.417l4,3.75l2.167-1.667l3.208,2.667h4.625l3.833,1l0.833-3.833l1.708-3.417l2.125-0.583l1.667,2.5l4.333,1.083
		l2.5,4.583l-1,5.167l-7,1.375v3.75l-3.75,3l-4.75,0.75l-0.25,3.875l1.5,1.875l-3.75,3.375h-5.875l-2.625,4.875L193.375,270.48z" style="stroke:#000000;stroke-opacity:1;stroke-width:0.5;stroke-miterlimit:4;stroke-dasharray:none;"/>
    <path id="Hwaseong-si" fill="#B9B9B9" d="M135.375,211.98l-4.125,0.125l-1.125,3.125l-0.875,2.5l-3-2.75l-1.625,0.375L121,214.98
			l-1.75-0.875l-2.375,0.75l-2.25,2.875l1.75,2.75l-2,4.875l-0.375,3l0.125,2.625l4-0.375l-1.375,3.375l1.875,3.125l4-3.125
			l3.125-4.125h4.5l1.75-2.375l-0.125,4.125l1.75,1L132,234.98l-5.25,0.5l0.25,2.875v2.625l-0.125,4.125l-2.625,2.5v2.25
			l6.875,1.125l1.125,1.75l5.375-0.75l5.5-7.875l6.125,0.625l6.5-1.25l1.25-7.875l3.75-1.875l-0.25-3l-3.625-2.375l2.375-4.125
			h4.875l1.25,2.375l1.5,3.625h2.625l0.375,2.5l1.708,1.208l2.5-4.667l2.833-2l-1.5-5.667l-8.167-0.667l-1.833-2.333l-3.292-0.5
			l-2,1.5l-6,0.25l-3.25-4.625l-2.5-0.75l-0.5-2.5l-4.25-1.375l-5.625,2L135.375,211.98z" style="stroke:#000000;stroke-opacity:1;stroke-width:0.5;stroke-miterlimit:4;stroke-dasharray:none;"/>
    <path id="Hwaseong-si" fill="#B9B9B9" d="M109.625,216.73L108,214.355l-3.125-0.5l-1.625-2.75l-4.5-0.625l2.25,4l1,3l-2.5,1.375
			l0.125,5.375l3,0.125l2.625-4l3.75,2.75l-0.125-3.875l1.25-1.125L109.625,216.73z" style="stroke:#000000;stroke-opacity:1;stroke-width:0.5;stroke-miterlimit:4;stroke-dasharray:none;"/>
</svg>
